<svg xmlns="http://www.w3.org/2000/svg" xmlns:xlink="http://www.w3.org/1999/xlink" width="1000" zoomAndPan="magnify"
    viewBox="0 0 750 749.999995" height="1000" preserveAspectRatio="xMidYMid meet" version="1.0">
    <path fill="#ca3438"
        d="M 311.765625 368.394531 C 313.53125 364.867188 315.292969 360.75 317.648438 356.636719 C 312.941406 257.265625 259.410156 184.351562 155.292969 172.59375 C 50 160.242188 40 248.445312 75.292969 325.472656 C 137.648438 458.949219 282.351562 572.429688 392.941406 666.511719 L 394.707031 667.6875 C 417.648438 647.105469 435.882812 619.472656 452.941406 593.597656 C 494.707031 531.859375 688.824219 187.292969 605.882812 130.257812 C 498.234375 56.167969 389.410156 273.140625 346.46875 363.691406 C 345.882812 366.042969 345.292969 367.808594 344.117188 369.570312 C 341.765625 373.6875 340 377.804688 338.234375 381.332031 C 334.707031 388.386719 325.882812 391.914062 318.824219 387.800781 C 311.175781 384.273438 308.234375 375.453125 311.765625 368.394531 Z M 340.589844 308.417969 C 397.058594 195.523438 492.351562 39.117188 615.292969 102.03125 C 750 170.828125 489.410156 644.753906 387.648438 708.257812 C 380 710.609375 371.765625 706.496094 369.410156 698.851562 C 367.648438 694.734375 368.234375 690.03125 370.589844 686.503906 C 259.410156 595.953125 107.648438 464.828125 48.824219 337.820312 C 0 232.566406 35.292969 129.078125 157.648438 143.191406 C 260.589844 154.953125 321.765625 218.457031 340.589844 308.417969 Z M 340.589844 308.417969 "
        fill-opacity="1" fill-rule="evenodd" />
</svg>