<svg width="200" height="64" viewBox="0 0 200 64" fill="none" xmlns="http://www.w3.org/2000/svg">
<path d="M17.4546 8.85109V58.1643C16.8557 57.8981 16.2567 57.6319 15.6578 57.3657C15.6578 53.1066 15.6578 26.9526 15.6578 23.0261L9.73487 30.0804C9.73487 37.7336 9.73487 44.0558 9.73487 52.9069C9.80142 52.9735 9.80142 53.04 9.86797 53.1066C-0.913059 41.9262 2.34787 24.1575 15.7243 17.3694V13.443C-9.6976 24.224 -2.64334 62.3569 25.0413 63.1555V0L17.4546 8.85109Z" fill="white"/>
<path d="M35.756 13.443V17.3694C49.7314 24.3571 52.2603 42.7914 41.3461 53.3727C41.3461 45.1872 41.4127 35.0051 41.3461 30.0139L36.1553 22.9596C36.1553 31.0786 36.1553 54.5706 36.1553 57.1661C35.756 57.3657 34.6912 57.8981 33.8926 58.1643V8.85109L26.6387 0L26.7052 63.2221C31.9626 63.0224 36.9539 61.3587 41.4127 57.9647C57.318 45.9192 54.2567 21.1628 35.756 13.443Z" fill="white"/>
<path d="M63.7735 42.4592C63.2411 42.4592 62.7752 42.2596 62.3759 41.9268C61.9766 41.5275 61.777 41.1282 61.777 40.5958L61.7104 16.1721C61.7104 15.8394 61.8435 15.4401 62.1763 14.9742C62.509 14.5084 62.9749 14.3087 63.6404 14.3087L69.7629 14.2422C71.6929 14.2422 73.3566 14.5749 74.9538 15.1739C76.4845 15.7728 77.7489 16.7045 78.6806 17.969C79.6123 19.2334 80.0781 20.8306 80.0781 22.694C80.0781 24.8901 79.6123 26.687 78.614 28.0179C77.6823 29.3489 76.3514 30.3472 74.6876 30.9461C73.0239 31.5451 71.0939 31.9444 68.9644 32.0109L65.6369 32.0775V40.6624C65.6369 41.1948 65.4372 41.5941 65.0379 41.9934C64.7717 42.3261 64.3059 42.4592 63.7735 42.4592ZM76.2183 22.694C76.2183 21.0968 75.6193 19.8989 74.488 19.1669C73.3566 18.4348 71.7594 18.1021 69.6964 18.1021H65.7034V28.0845L68.9644 28.0179C71.227 27.9514 73.0239 27.5521 74.2883 26.8201C75.5528 26.1546 76.2183 24.757 76.2183 22.694Z" fill="white"/>
<path d="M82.6069 16.172C82.6069 15.6396 82.8066 15.1737 83.2059 14.841C83.6052 14.4417 84.071 14.3086 84.6034 14.3086H101.307C101.84 14.3086 102.306 14.5082 102.705 14.9075C103.104 15.3068 103.304 15.7727 103.304 16.3051C103.304 16.8375 103.104 17.3033 102.705 17.7026C102.306 18.1019 101.84 18.3016 101.307 18.3016H86.5334V26.2875L99.6436 26.3541C100.176 26.3541 100.642 26.5537 101.041 26.953C101.44 27.3523 101.574 27.8182 101.574 28.4837C101.574 29.016 101.374 29.4153 100.975 29.8146C100.575 30.1474 100.109 30.347 99.6436 30.347L86.5334 30.2805V38.5326H101.241C101.773 38.5326 102.239 38.7323 102.638 39.1316C103.038 39.5309 103.237 39.9967 103.237 40.5291C103.237 41.0615 103.038 41.5274 102.638 41.9267C102.239 42.326 101.773 42.5256 101.241 42.5256H84.6034C84.071 42.5256 83.6052 42.326 83.2059 41.9267C82.8066 41.5274 82.6069 41.0615 82.6069 40.5957V16.172Z" fill="white"/>
<path d="M105.7 16.172C105.7 15.6396 105.899 15.1737 106.299 14.841C106.698 14.5082 107.164 14.3086 107.696 14.3086C108.295 14.3086 108.828 14.5748 109.227 15.0406L123.934 35.0055V16.172C123.934 15.6396 124.134 15.1737 124.533 14.841C124.933 14.4417 125.398 14.3086 125.931 14.3086C126.463 14.3086 126.929 14.5082 127.328 14.841C127.728 15.2403 127.927 15.6396 127.927 16.172V40.5957C127.927 41.1281 127.728 41.5939 127.328 41.9267C126.929 42.2594 126.463 42.4591 125.931 42.4591C125.332 42.4591 124.799 42.1929 124.4 41.6605L109.693 21.6956V40.5957C109.693 41.1281 109.493 41.5939 109.094 41.9267C108.694 42.326 108.229 42.4591 107.696 42.4591C107.164 42.4591 106.698 42.2594 106.299 41.9267C105.899 41.5274 105.7 41.1281 105.7 40.5957V16.172Z" fill="white"/>
<path d="M134.05 42.2599C133.185 42.2599 132.386 41.9271 131.72 41.3282C131.055 40.7292 130.722 39.9306 130.722 39.0655C130.722 38.2003 131.055 37.4017 131.72 36.8028C132.386 36.2038 133.118 35.8711 134.05 35.8711C134.915 35.8711 135.713 36.2038 136.379 36.8028C137.044 37.4017 137.377 38.2003 137.377 39.0655C137.377 39.9306 137.044 40.7292 136.379 41.3282C135.713 41.9271 134.915 42.2599 134.05 42.2599Z" fill="#222222"/>
<path d="M157.608 34.4059C157.941 34.4059 158.274 34.539 158.54 34.8052C158.806 35.0714 158.939 35.4041 158.939 35.7369C158.939 36.0031 158.873 36.2693 158.806 36.4689C158.34 37.5337 157.608 38.532 156.743 39.4637C155.878 40.3954 154.813 41.1274 153.549 41.6598C152.284 42.1922 150.953 42.525 149.423 42.525C147.892 42.525 146.561 42.2588 145.297 41.6598C144.032 41.0609 143.034 40.3288 142.169 39.3306C141.304 38.3323 140.638 37.201 140.172 35.87C139.706 34.539 139.507 33.208 139.507 31.7439C139.507 30.2798 139.773 28.9488 140.239 27.6178C140.705 26.2869 141.37 25.1555 142.235 24.1573C143.101 23.159 144.165 22.3604 145.363 21.828C146.561 21.2956 147.892 20.9629 149.423 20.9629C150.953 20.9629 152.284 21.2291 153.482 21.7615C154.68 22.2939 155.745 23.0259 156.677 23.8911C157.608 24.7562 158.274 25.7545 158.806 26.8193C158.939 27.0189 158.939 27.2185 158.939 27.4847C158.939 27.8175 158.806 28.1502 158.54 28.483C158.274 28.7492 158.008 28.9488 157.608 28.9488C157.276 28.9488 157.009 28.8823 156.677 28.7492C156.41 28.6161 156.211 28.4164 156.078 28.0837C155.545 26.9524 154.68 25.9541 153.482 25.1555C152.284 24.3569 150.953 23.9576 149.29 23.9576C147.892 23.9576 146.628 24.2904 145.629 25.0224C144.565 25.7545 143.766 26.6862 143.234 27.884C142.701 29.0819 142.368 30.4129 142.368 31.8105C142.368 33.208 142.635 34.539 143.234 35.7369C143.766 36.9348 144.565 37.8665 145.629 38.5985C146.694 39.3306 147.892 39.6633 149.356 39.6633C150.421 39.6633 151.419 39.4637 152.284 39.0644C153.15 38.6651 153.948 38.1327 154.614 37.4672C155.279 36.8017 155.745 36.1362 156.078 35.3376C156.477 34.7387 156.943 34.4059 157.608 34.4059Z" fill="white"/>
<path d="M162.666 42.3268C162.267 42.3268 161.934 42.1937 161.668 41.9275C161.402 41.6613 161.269 41.3286 161.269 40.9293V22.6282C161.269 22.2289 161.402 21.8961 161.668 21.6299C161.934 21.3637 162.267 21.1641 162.666 21.1641C163.132 21.1641 163.465 21.2972 163.797 21.5634C164.064 21.8296 164.197 22.1623 164.197 22.6282V40.9293C164.197 41.3286 164.064 41.6613 163.797 41.9275C163.398 42.1937 163.065 42.3268 162.666 42.3268Z" fill="white"/>
<path d="M165.994 22.6946C165.994 22.2953 166.127 21.9625 166.393 21.6963C166.659 21.4301 166.992 21.297 167.391 21.297L182.032 21.2305C182.431 21.2305 182.764 21.3636 183.03 21.6298C183.297 21.896 183.43 22.2287 183.43 22.628C183.43 23.0273 183.297 23.3601 183.03 23.6263C182.764 23.8925 182.431 24.0255 182.032 24.0255H176.242L176.176 40.9291C176.176 41.3284 176.043 41.6612 175.776 41.9274C175.51 42.1936 175.177 42.3267 174.778 42.3267C174.379 42.3267 174.046 42.1936 173.78 41.9274C173.514 41.6612 173.381 41.3284 173.381 40.9291L173.447 24.1586L167.591 24.2252C167.192 24.2252 166.859 24.0921 166.593 23.8259C166.326 23.5597 165.994 23.0939 165.994 22.6946Z" fill="white"/>
<path d="M184.228 22.2276C184.228 21.8283 184.361 21.4956 184.694 21.2294C185.027 20.9632 185.359 20.8301 185.759 20.8301C186.291 20.8301 186.624 21.0963 186.957 21.5621L192.147 30.5463L197.272 21.6287C197.338 21.4956 197.538 21.2959 197.738 21.1628C197.937 21.0297 198.203 20.9632 198.403 20.9632C198.603 20.9632 198.802 20.9632 199.002 21.0297C199.202 21.0963 199.401 21.2294 199.534 21.429C199.801 21.6952 199.934 22.028 199.934 22.3607C199.934 22.6935 199.867 22.9597 199.734 23.2259L193.545 33.8072L193.478 41.0611C193.478 41.4604 193.345 41.7932 193.079 42.0594C192.813 42.3256 192.48 42.4587 192.081 42.4587C191.682 42.4587 191.349 42.3256 191.083 42.0594C190.816 41.7932 190.683 41.4604 190.683 41.0611L190.816 33.6076L184.627 23.0928C184.361 22.8931 184.228 22.5604 184.228 22.2276Z" fill="white"/>
<path d="M60.1792 48.6475C60.1792 48.5144 60.2458 48.4478 60.3123 48.3147C60.3789 48.1816 60.512 48.1816 60.645 48.1816H65.1704C65.3035 48.1816 65.3701 48.2482 65.5032 48.3147C65.6363 48.3813 65.6363 48.5144 65.6363 48.6475C65.6363 48.7806 65.5697 48.8471 65.5032 48.9802C65.4366 49.1133 65.3035 49.1133 65.1704 49.1133H63.3736V54.3042C63.3736 54.4373 63.307 54.5038 63.2405 54.6369C63.1739 54.77 63.0408 54.77 62.9077 54.77C62.7746 54.77 62.7081 54.7035 62.575 54.6369C62.4419 54.5704 62.4419 54.4373 62.4419 54.3042V49.1133H60.645C60.512 49.1133 60.4454 49.0468 60.3123 48.9802C60.1792 48.9137 60.1792 48.7806 60.1792 48.6475Z" fill="white"/>
<path d="M74.8863 48.3814C74.9529 48.3149 74.9529 48.2483 75.086 48.1818C75.2191 48.1152 75.2191 48.1152 75.3522 48.1152C75.4187 48.1152 75.4853 48.1152 75.6184 48.1818C75.7515 48.2483 75.7514 48.3149 75.818 48.3814L78.3469 54.1712C78.3469 54.2378 78.4134 54.3043 78.4134 54.3709C78.4134 54.504 78.3469 54.5705 78.2803 54.7036C78.2138 54.8367 78.0807 54.8367 77.9476 54.8367C77.881 54.8367 77.7479 54.8367 77.6814 54.7702C77.6148 54.7036 77.5483 54.6371 77.4817 54.5705L76.6831 52.7737L74.0877 52.7072L73.2891 54.5705C73.2891 54.6371 73.2226 54.7036 73.0895 54.7702C72.9564 54.8367 72.9564 54.8367 72.8233 54.8367C72.6902 54.8367 72.6236 54.7702 72.4905 54.7036C72.3574 54.6371 72.3574 54.504 72.3574 54.3709C72.3574 54.3043 72.3574 54.2378 72.424 54.1712L74.8863 48.3814ZM75.2856 49.7124L74.4205 51.7755H76.2173L75.2856 49.7124Z" fill="white"/>
<path d="M85.0684 51.5094C85.0684 51.0436 85.1349 50.6443 85.3346 50.245C85.5342 49.8457 85.7339 49.4464 86 49.1136C86.2662 48.7809 86.6655 48.5147 87.0648 48.315C87.4641 48.1154 87.93 48.0488 88.3958 48.0488C88.8617 48.0488 89.261 48.1154 89.5937 48.2485C89.9265 48.3816 90.3258 48.5812 90.6585 48.7809C90.7916 48.8474 90.8582 48.9805 90.8582 49.1136C90.8582 49.2467 90.7916 49.3133 90.7251 49.4464C90.6585 49.5795 90.5254 49.5795 90.3923 49.5795C90.3258 49.5795 90.1927 49.5795 90.1261 49.5129C89.8599 49.3798 89.5937 49.2467 89.3275 49.1136C89.0613 48.9805 88.7286 48.9805 88.3958 48.9805C88.0631 48.9805 87.7303 49.0471 87.3976 49.1802C87.0648 49.3133 86.8652 49.5129 86.599 49.7126C86.3328 49.9122 86.1997 50.245 86.0666 50.5112C85.9335 50.7774 85.867 51.1101 85.867 51.4429C85.867 51.9087 85.9335 52.308 86.1331 52.6407C86.3328 52.9735 86.599 53.2397 86.9983 53.4393C87.3976 53.639 87.7969 53.7721 88.2627 53.7721C88.5289 53.7721 88.7951 53.7721 89.0613 53.7055C89.3275 53.639 89.5272 53.5724 89.7934 53.5059V51.9753H88.3958C88.2627 51.9753 88.1962 51.9087 88.0631 51.8422C87.93 51.7756 87.93 51.6425 87.93 51.5094C87.93 51.3763 87.9965 51.3098 88.0631 51.1767C88.1296 51.0436 88.2627 51.0436 88.3958 51.0436H90.2592C90.3923 51.0436 90.4589 51.1101 90.592 51.1767C90.7251 51.2432 90.7251 51.3763 90.7251 51.5094V53.8386C90.7251 53.9052 90.7251 54.0383 90.6585 54.1048C90.592 54.1714 90.5254 54.2379 90.4589 54.2379C90.1927 54.371 89.8599 54.4376 89.5272 54.5707C89.1944 54.7038 88.7951 54.7038 88.3958 54.7038C87.7303 54.7038 87.1979 54.5707 86.6655 54.3045C86.1331 54.0383 85.8004 53.639 85.4677 53.1731C85.1349 52.7073 85.0684 52.1749 85.0684 51.5094Z" fill="white"/>
<path d="M107.296 54.7703C107.163 54.7703 107.096 54.7038 106.963 54.6372C106.83 54.5707 106.83 54.4376 106.83 54.3045V48.5147C106.83 48.3816 106.897 48.315 106.963 48.1819C107.03 48.0488 107.163 48.0488 107.296 48.0488C107.429 48.0488 107.496 48.1154 107.629 48.1819C107.762 48.2485 107.762 48.3816 107.762 48.5147V53.8386H111.222C111.355 53.8386 111.422 53.9052 111.555 53.9717C111.688 54.0383 111.688 54.1714 111.688 54.3045C111.688 54.4376 111.622 54.5041 111.555 54.6372C111.489 54.7703 111.355 54.7703 111.222 54.7703H107.296Z" fill="white"/>
<path d="M119.009 54.7702C118.876 54.7702 118.809 54.7036 118.676 54.6371C118.543 54.5705 118.543 54.4374 118.543 54.3043V48.5811C118.543 48.448 118.61 48.3814 118.676 48.2483C118.743 48.1152 118.876 48.1152 119.009 48.1152C119.142 48.1152 119.275 48.1818 119.342 48.2483C119.408 48.3149 119.475 48.448 119.475 48.5811V54.3043C119.475 54.4374 119.408 54.504 119.342 54.6371C119.275 54.7702 119.142 54.7702 119.009 54.7702Z" fill="white"/>
<path d="M126.596 48.6475C126.596 48.5144 126.662 48.4478 126.729 48.3147C126.795 48.1816 126.928 48.1816 127.062 48.1816C127.195 48.1816 127.328 48.2482 127.394 48.3813L130.855 53.0398V48.6475C130.855 48.5144 130.921 48.4478 130.988 48.3147C131.055 48.1816 131.188 48.1816 131.321 48.1816C131.454 48.1816 131.52 48.2482 131.653 48.3147C131.787 48.3813 131.787 48.5144 131.787 48.6475V54.3707C131.787 54.5038 131.72 54.5704 131.653 54.7035C131.587 54.8366 131.454 54.8366 131.321 54.8366C131.188 54.8366 131.055 54.77 130.988 54.6369L127.527 49.9785V54.3707C127.527 54.5038 127.461 54.5704 127.394 54.7035C127.328 54.8366 127.195 54.8366 127.062 54.8366C126.928 54.8366 126.862 54.77 126.729 54.7035C126.596 54.6369 126.596 54.5038 126.596 54.3707V48.6475Z" fill="white"/>
<path d="M138.774 48.6475C138.774 48.5144 138.841 48.4478 138.908 48.3147C138.974 48.1816 139.107 48.1816 139.24 48.1816H143.167C143.3 48.1816 143.366 48.2482 143.499 48.3147C143.633 48.3813 143.633 48.5144 143.633 48.6475C143.633 48.7806 143.566 48.8471 143.499 48.9802C143.433 49.1133 143.3 49.1133 143.167 49.1133H139.706V50.9767H142.767C142.9 50.9767 143.034 51.0433 143.1 51.1098C143.167 51.1764 143.233 51.3095 143.233 51.4426C143.233 51.5757 143.167 51.6422 143.1 51.7753C143.034 51.9084 142.9 51.9084 142.767 51.9084H139.706V53.8384H143.167C143.3 53.8384 143.366 53.9049 143.499 53.9715C143.633 54.038 143.633 54.1711 143.633 54.3042C143.633 54.4373 143.566 54.5038 143.499 54.6369C143.433 54.77 143.3 54.77 143.167 54.77H139.307C139.174 54.77 139.107 54.7035 138.974 54.6369C138.841 54.5704 138.841 54.4373 138.841 54.3042L138.774 48.6475Z" fill="white"/>
<path d="M159.338 48.5145C159.338 48.3814 159.405 48.3149 159.471 48.2483C159.538 48.1818 159.671 48.1152 159.737 48.1152C159.87 48.1152 160.004 48.1818 160.07 48.2483C160.137 48.3149 160.203 48.448 160.203 48.5811V51.11H163.597V48.5811C163.597 48.448 163.597 48.3814 163.73 48.2483C163.863 48.1152 163.93 48.1152 164.063 48.1152C164.196 48.1152 164.263 48.1818 164.396 48.2483C164.529 48.3149 164.529 48.448 164.529 48.5811V54.3709C164.529 54.504 164.462 54.5705 164.396 54.7036C164.329 54.8367 164.196 54.8367 164.063 54.8367C163.93 54.8367 163.863 54.7702 163.73 54.7036C163.597 54.6371 163.597 54.504 163.597 54.3709V52.0417H160.203V54.3709C160.203 54.504 160.137 54.5705 160.07 54.7036C160.004 54.8367 159.87 54.8367 159.737 54.8367C159.604 54.8367 159.538 54.7702 159.405 54.7036C159.271 54.6371 159.271 54.504 159.271 54.3709C159.271 53.4392 159.271 52.441 159.271 51.4427C159.271 50.4445 159.338 49.5128 159.338 48.5145Z" fill="white"/>
<path d="M171.583 48.6475C171.583 48.5144 171.65 48.4478 171.716 48.3147C171.783 48.1816 171.916 48.1816 172.049 48.1816H175.975C176.108 48.1816 176.175 48.2482 176.308 48.3147C176.441 48.3813 176.441 48.5144 176.441 48.6475C176.441 48.7806 176.375 48.8471 176.308 48.9802C176.241 49.1133 176.108 49.1133 175.975 49.1133H172.515V50.9767H175.576C175.709 50.9767 175.842 51.0433 175.909 51.1098C175.975 51.1764 176.042 51.3095 176.042 51.4426C176.042 51.5757 175.975 51.6422 175.909 51.7753C175.842 51.9084 175.709 51.9084 175.576 51.9084H172.515V53.8384H175.975C176.108 53.8384 176.175 53.9049 176.308 53.9715C176.441 54.038 176.441 54.1711 176.441 54.3042C176.441 54.4373 176.375 54.5038 176.308 54.6369C176.241 54.77 176.108 54.77 175.975 54.77H172.115C171.982 54.77 171.916 54.7035 171.783 54.6369C171.65 54.5704 171.65 54.4373 171.65 54.3042L171.583 48.6475Z" fill="white"/>
<path d="M188.221 54.3706C188.221 54.5037 188.154 54.5703 188.087 54.7034C188.021 54.8365 187.888 54.8365 187.821 54.8365C187.755 54.8365 187.688 54.8365 187.622 54.7699C187.555 54.7034 187.489 54.6368 187.489 54.6368C187.222 54.4372 186.956 54.2375 186.756 53.9713C186.557 53.7051 186.357 53.4389 186.224 53.1727C186.091 52.9065 185.958 52.7069 185.825 52.5738C185.692 52.4407 185.559 52.3076 185.359 52.241C185.159 52.1745 184.96 52.1745 184.627 52.1745H184.228V54.3706C184.228 54.5037 184.161 54.5703 184.094 54.7034C184.028 54.8365 183.895 54.8365 183.762 54.8365C183.629 54.8365 183.562 54.7699 183.429 54.7034C183.296 54.6368 183.296 54.5037 183.296 54.3706V48.7139C183.296 48.5808 183.362 48.4477 183.429 48.3811C183.496 48.3146 183.629 48.248 183.762 48.248H184.96H185.093C185.625 48.248 186.091 48.3146 186.49 48.4477C186.89 48.5808 187.222 48.847 187.489 49.1132C187.755 49.3794 187.821 49.7787 187.821 50.2445C187.821 50.5107 187.755 50.7769 187.622 51.0431C187.489 51.3093 187.355 51.4424 187.156 51.6421C186.956 51.8417 186.756 51.9083 186.557 52.0414C186.69 52.1745 186.756 52.3076 186.89 52.5072C187.089 52.84 187.222 53.1727 187.422 53.3724C187.622 53.572 187.821 53.8382 188.087 54.0379C188.154 54.1044 188.221 54.1044 188.221 54.171C188.221 54.2375 188.221 54.3041 188.221 54.3706ZM185.093 49.1132H184.228V51.3093H185.093C185.625 51.3093 186.091 51.2428 186.424 51.0431C186.756 50.8435 186.89 50.6438 186.89 50.2445C186.89 49.8452 186.69 49.579 186.357 49.3794C186.024 49.1797 185.625 49.1132 185.093 49.1132Z" fill="white"/>
<path d="M195.142 48.6475C195.142 48.5144 195.208 48.4478 195.275 48.3147C195.341 48.1816 195.474 48.1816 195.607 48.1816H199.534C199.667 48.1816 199.734 48.2482 199.867 48.3147C200 48.3813 200 48.5144 200 48.6475C200 48.7806 199.933 48.8471 199.867 48.9802C199.8 49.1133 199.667 49.1133 199.534 49.1133H196.073V50.9767H199.135C199.268 50.9767 199.401 51.0433 199.467 51.1098C199.534 51.1764 199.6 51.3095 199.6 51.4426C199.6 51.5757 199.534 51.6422 199.467 51.7753C199.401 51.9084 199.268 51.9084 199.135 51.9084H196.073V53.8384H199.534C199.667 53.8384 199.734 53.9049 199.867 53.9715C200 54.038 200 54.1711 200 54.3042C200 54.4373 199.933 54.5038 199.867 54.6369C199.8 54.77 199.667 54.77 199.534 54.77H195.674C195.541 54.77 195.474 54.7035 195.341 54.6369C195.208 54.5704 195.208 54.4373 195.208 54.3042L195.142 48.6475Z" fill="white"/>
</svg>
