<svg width="200" height="64" viewBox="0 0 200 64" fill="none" xmlns="http://www.w3.org/2000/svg">
<path d="M17.4546 8.85109V58.1643C16.8557 57.8981 16.2567 57.6319 15.6578 57.3657C15.6578 53.1066 15.6578 26.9526 15.6578 23.0261L9.73487 30.0804C9.73487 37.7336 9.73487 44.0558 9.73487 52.9069C9.80142 52.9735 9.80142 53.04 9.86797 53.1066C-0.913059 41.9262 2.34787 24.1575 15.7243 17.3694V13.443C-9.6976 24.224 -2.64334 62.3569 25.0413 63.1555V0L17.4546 8.85109Z" fill="#00AA55"/>
<path d="M35.7557 13.443V17.3694C49.7312 24.3571 52.26 42.7914 41.3459 53.3727C41.3459 45.1872 41.4125 35.0051 41.3459 30.0139L36.155 22.9596C36.155 31.0786 36.155 54.5706 36.155 57.1661C35.7557 57.3657 34.691 57.8981 33.8924 58.1643V8.85109L26.6385 0L26.705 63.2221C31.9624 63.0224 36.9536 61.3587 41.4125 57.9647C57.3178 45.9192 54.2565 21.1628 35.7557 13.443Z" fill="#00AA55"/>
<path d="M63.7733 42.4586C63.2409 42.4586 62.7751 42.259 62.3758 41.9262C61.9765 41.5269 61.7768 41.1276 61.7768 40.5952L61.7103 16.1715C61.7103 15.8388 61.8434 15.4395 62.1761 14.9737C62.5089 14.5078 62.9747 14.3082 63.6402 14.3082L69.7628 14.2416C71.6927 14.2416 73.3564 14.5744 74.9536 15.1733C76.4843 15.7722 77.7487 16.7039 78.6804 17.9684C79.6121 19.2328 80.0779 20.83 80.0779 22.6934C80.0779 24.8895 79.6121 26.6864 78.6139 28.0174C77.6822 29.3484 76.3512 30.3466 74.6874 30.9455C73.0237 31.5445 71.0938 31.9438 68.9642 32.0103L65.6367 32.0769V40.6618C65.6367 41.1942 65.437 41.5935 65.0377 41.9928C64.7715 42.3255 64.3057 42.4586 63.7733 42.4586ZM76.2181 22.6934C76.2181 21.0962 75.6191 19.8983 74.4878 19.1663C73.3564 18.4342 71.7592 18.1015 69.6962 18.1015H65.7032V28.0839L68.9642 28.0174C71.2269 27.9508 73.0237 27.5515 74.2881 26.8195C75.5526 26.154 76.2181 24.7564 76.2181 22.6934Z" fill="#222222"/>
<path d="M82.6067 16.1715C82.6067 15.6391 82.8063 15.1733 83.2056 14.8405C83.6049 14.4412 84.0707 14.3082 84.6031 14.3082H101.307C101.839 14.3082 102.305 14.5078 102.705 14.9071C103.104 15.3064 103.304 15.7722 103.304 16.3046C103.304 16.837 103.104 17.3029 102.705 17.7022C102.305 18.1015 101.839 18.3011 101.307 18.3011H86.5331V26.2871L99.6434 26.3536C100.176 26.3536 100.642 26.5533 101.041 26.9526C101.44 27.3519 101.573 27.8177 101.573 28.4832C101.573 29.0156 101.374 29.4149 100.974 29.8142C100.575 30.1469 100.109 30.3466 99.6434 30.3466L86.5331 30.28V38.5322H101.241C101.773 38.5322 102.239 38.7318 102.638 39.1311C103.037 39.5304 103.237 39.9963 103.237 40.5287C103.237 41.0611 103.037 41.5269 102.638 41.9262C102.239 42.3255 101.773 42.5252 101.241 42.5252H84.6031C84.0707 42.5252 83.6049 42.3255 83.2056 41.9262C82.8063 41.5269 82.6067 41.0611 82.6067 40.5952V16.1715Z" fill="#222222"/>
<path d="M105.7 16.1715C105.7 15.6391 105.899 15.1733 106.298 14.8405C106.698 14.5078 107.164 14.3082 107.696 14.3082C108.295 14.3082 108.827 14.5743 109.227 15.0402L123.934 35.0051V16.1715C123.934 15.6391 124.134 15.1733 124.533 14.8405C124.932 14.4412 125.398 14.3082 125.931 14.3082C126.463 14.3082 126.929 14.5078 127.328 14.8405C127.727 15.2398 127.927 15.6391 127.927 16.1715V40.5952C127.927 41.1276 127.727 41.5935 127.328 41.9262C126.929 42.259 126.463 42.4586 125.931 42.4586C125.332 42.4586 124.799 42.1924 124.4 41.66L109.693 21.6952V40.5952C109.693 41.1276 109.493 41.5935 109.094 41.9262C108.694 42.3255 108.228 42.4586 107.696 42.4586C107.164 42.4586 106.698 42.259 106.298 41.9262C105.899 41.5269 105.7 41.1276 105.7 40.5952V16.1715Z" fill="#222222"/>
<path d="M134.049 42.259C133.184 42.259 132.386 41.9262 131.72 41.3273C131.055 40.7283 130.722 39.9297 130.722 39.0646C130.722 38.1995 131.055 37.4009 131.72 36.8019C132.386 36.203 133.118 35.8702 134.049 35.8702C134.915 35.8702 135.713 36.203 136.379 36.8019C137.044 37.4009 137.377 38.1995 137.377 39.0646C137.377 39.9297 137.044 40.7283 136.379 41.3273C135.713 41.9262 134.915 42.259 134.049 42.259Z" fill="#00AA55"/>
<path d="M157.608 34.4061C157.941 34.4061 158.274 34.5392 158.54 34.8054C158.806 35.0716 158.939 35.4044 158.939 35.7371C158.939 36.0033 158.872 36.2695 158.806 36.4692C158.34 37.5339 157.608 38.5322 156.743 39.4639C155.878 40.3956 154.813 41.1276 153.549 41.66C152.284 42.1924 150.953 42.5252 149.422 42.5252C147.892 42.5252 146.561 42.259 145.296 41.66C144.032 41.0611 143.034 40.329 142.169 39.3308C141.303 38.3325 140.638 37.2012 140.172 35.8702C139.706 34.5392 139.507 33.2082 139.507 31.7441C139.507 30.28 139.773 28.9491 140.239 27.6181C140.704 26.2871 141.37 25.1557 142.235 24.1575C143.1 23.1592 144.165 22.3606 145.363 21.8282C146.561 21.2959 147.892 20.9631 149.422 20.9631C150.953 20.9631 152.284 21.2293 153.482 21.7617C154.68 22.2941 155.745 23.0261 156.676 23.8913C157.608 24.7564 158.274 25.7547 158.806 26.8195C158.939 27.0191 158.939 27.2188 158.939 27.485C158.939 27.8177 158.806 28.1505 158.54 28.4832C158.274 28.7494 158.007 28.9491 157.608 28.9491C157.275 28.9491 157.009 28.8825 156.676 28.7494C156.41 28.6163 156.21 28.4167 156.077 28.0839C155.545 26.9526 154.68 25.9543 153.482 25.1557C152.284 24.3571 150.953 23.9578 149.289 23.9578C147.892 23.9578 146.627 24.2906 145.629 25.0226C144.564 25.7547 143.766 26.6864 143.233 27.8843C142.701 29.0822 142.368 30.4131 142.368 31.8107C142.368 33.2082 142.634 34.5392 143.233 35.7371C143.766 36.935 144.564 37.8667 145.629 38.5987C146.694 39.3308 147.892 39.6635 149.356 39.6635C150.421 39.6635 151.419 39.4639 152.284 39.0646C153.149 38.6653 153.948 38.1329 154.613 37.4674C155.279 36.8019 155.745 36.1364 156.077 35.3378C156.477 34.7389 156.943 34.4061 157.608 34.4061Z" fill="#222222"/>
<path d="M162.666 42.3255C162.267 42.3255 161.934 42.1924 161.668 41.9262C161.401 41.66 161.268 41.3273 161.268 40.928V22.6268C161.268 22.2275 161.401 21.8948 161.668 21.6286C161.934 21.3624 162.267 21.1628 162.666 21.1628C163.132 21.1628 163.464 21.2959 163.797 21.562C164.063 21.8282 164.197 22.161 164.197 22.6268V40.928C164.197 41.3273 164.063 41.66 163.797 41.9262C163.398 42.1924 163.065 42.3255 162.666 42.3255Z" fill="#222222"/>
<path d="M165.993 22.6934C165.993 22.2941 166.126 21.9614 166.393 21.6952C166.659 21.429 166.992 21.2959 167.391 21.2959L182.032 21.2293C182.431 21.2293 182.764 21.3624 183.03 21.6286C183.296 21.8948 183.429 22.2276 183.429 22.6268C183.429 23.0261 183.296 23.3589 183.03 23.6251C182.764 23.8913 182.431 24.0244 182.032 24.0244H176.242L176.175 40.928C176.175 41.3273 176.042 41.66 175.776 41.9262C175.51 42.1924 175.177 42.3255 174.778 42.3255C174.379 42.3255 174.046 42.1924 173.78 41.9262C173.513 41.66 173.38 41.3273 173.38 40.928L173.447 24.1575L167.591 24.224C167.191 24.224 166.858 24.0909 166.592 23.8247C166.326 23.5585 165.993 23.0927 165.993 22.6934Z" fill="#222222"/>
<path d="M184.228 22.2275C184.228 21.8282 184.361 21.4955 184.694 21.2293C185.027 20.9631 185.359 20.83 185.759 20.83C186.291 20.83 186.624 21.0962 186.956 21.562L192.147 30.5462L197.272 21.6286C197.338 21.4955 197.538 21.2958 197.737 21.1627C197.937 21.0297 198.203 20.9631 198.403 20.9631C198.603 20.9631 198.802 20.9631 199.002 21.0297C199.202 21.0962 199.401 21.2293 199.534 21.4289C199.801 21.6951 199.934 22.0279 199.934 22.3606C199.934 22.6934 199.867 22.9596 199.734 23.2258L193.545 33.8072L193.478 41.0611C193.478 41.4604 193.345 41.7931 193.079 42.0593C192.813 42.3255 192.48 42.4586 192.081 42.4586C191.681 42.4586 191.349 42.3255 191.083 42.0593C190.816 41.7931 190.683 41.4604 190.683 41.0611L190.816 33.6075L184.627 23.0927C184.361 22.893 184.228 22.5603 184.228 22.2275Z" fill="#222222"/>
<path d="M60.1793 48.6477C60.1793 48.5146 60.2459 48.4481 60.3124 48.315C60.379 48.1819 60.5121 48.1819 60.6452 48.1819H65.1705C65.3036 48.1819 65.3702 48.2484 65.5033 48.315C65.6364 48.3815 65.6364 48.5146 65.6364 48.6477C65.6364 48.7808 65.5698 48.8474 65.5033 48.9805C65.4367 49.1136 65.3036 49.1136 65.1705 49.1136H63.3737V54.3045C63.3737 54.4376 63.3072 54.5041 63.2406 54.6372C63.1741 54.7703 63.041 54.7703 62.9079 54.7703C62.7748 54.7703 62.7082 54.7038 62.5751 54.6372C62.442 54.5707 62.442 54.4376 62.442 54.3045V49.1136H60.6452C60.5121 49.1136 60.4455 49.047 60.3124 48.9805C60.1793 48.9139 60.1793 48.7808 60.1793 48.6477Z" fill="black"/>
<path d="M74.8867 48.3815C74.9533 48.315 74.9533 48.2484 75.0863 48.1819C75.2194 48.1153 75.2194 48.1153 75.3525 48.1153C75.4191 48.1153 75.4856 48.1153 75.6187 48.1819C75.7518 48.2484 75.7518 48.315 75.8184 48.3815L78.3473 54.1714C78.3473 54.2379 78.4138 54.3044 78.4138 54.371C78.4138 54.5041 78.3473 54.5706 78.2807 54.7037C78.2142 54.8368 78.0811 54.8368 77.948 54.8368C77.8814 54.8368 77.7483 54.8368 77.6818 54.7703C77.6152 54.7037 77.5487 54.6372 77.4821 54.5706L76.6835 52.7738L74.0881 52.7073L73.2895 54.5706C73.2895 54.6372 73.223 54.7037 73.0899 54.7703C72.9568 54.8368 72.9568 54.8368 72.8237 54.8368C72.6906 54.8368 72.624 54.7703 72.4909 54.7037C72.3578 54.6372 72.3578 54.5041 72.3578 54.371C72.3578 54.3044 72.3578 54.2379 72.4244 54.1714L74.8867 48.3815ZM75.286 49.7125L74.4209 51.7756H76.2177L75.286 49.7125Z" fill="black"/>
<path d="M85.0687 51.5094C85.0687 51.0435 85.1352 50.6442 85.3349 50.2449C85.5345 49.8456 85.7342 49.4463 86.0004 49.1136C86.2666 48.7808 86.6659 48.5146 87.0652 48.315C87.4645 48.1153 87.9303 48.0488 88.3962 48.0488C88.862 48.0488 89.2613 48.1153 89.5941 48.2484C89.9268 48.3815 90.3261 48.5812 90.6589 48.7808C90.792 48.8474 90.8585 48.9805 90.8585 49.1136C90.8585 49.2467 90.792 49.3132 90.7254 49.4463C90.6589 49.5794 90.5258 49.5794 90.3927 49.5794C90.3261 49.5794 90.193 49.5794 90.1265 49.5129C89.8603 49.3798 89.5941 49.2467 89.3279 49.1136C89.0617 48.9805 88.7289 48.9805 88.3962 48.9805C88.0634 48.9805 87.7307 49.047 87.3979 49.1801C87.0652 49.3132 86.8655 49.5129 86.5993 49.7125C86.3331 49.9122 86.2 50.2449 86.0669 50.5111C85.9338 50.7773 85.8673 51.1101 85.8673 51.4428C85.8673 51.9087 85.9338 52.308 86.1335 52.6407C86.3331 52.9735 86.5993 53.2397 86.9986 53.4393C87.3979 53.639 87.7972 53.7721 88.2631 53.7721C88.5293 53.7721 88.7955 53.7721 89.0617 53.7055C89.3279 53.639 89.5275 53.5724 89.7937 53.5059V51.9752H88.3962C88.2631 51.9752 88.1965 51.9087 88.0634 51.8421C87.9303 51.7756 87.9303 51.6425 87.9303 51.5094C87.9303 51.3763 87.9969 51.3097 88.0634 51.1766C88.13 51.0435 88.2631 51.0435 88.3962 51.0435H90.2596C90.3927 51.0435 90.4592 51.1101 90.5923 51.1766C90.7254 51.2432 90.7254 51.3763 90.7254 51.5094V53.8386C90.7254 53.9052 90.7254 54.0383 90.6589 54.1048C90.5923 54.1714 90.5258 54.2379 90.4592 54.2379C90.193 54.371 89.8603 54.4376 89.5275 54.5707C89.1948 54.7038 88.7955 54.7038 88.3962 54.7038C87.7307 54.7038 87.1983 54.5707 86.6659 54.3045C86.1335 54.0383 85.8007 53.639 85.468 53.1731C85.1352 52.7073 85.0687 52.1749 85.0687 51.5094Z" fill="black"/>
<path d="M107.296 54.7703C107.163 54.7703 107.097 54.7038 106.964 54.6372C106.83 54.5707 106.83 54.4376 106.83 54.3045V48.5146C106.83 48.3815 106.897 48.315 106.964 48.1819C107.03 48.0488 107.163 48.0488 107.296 48.0488C107.429 48.0488 107.496 48.1154 107.629 48.1819C107.762 48.2484 107.762 48.3815 107.762 48.5146V53.8386H111.223C111.356 53.8386 111.422 53.9052 111.556 53.9717C111.689 54.0383 111.689 54.1714 111.689 54.3045C111.689 54.4376 111.622 54.5041 111.556 54.6372C111.489 54.7703 111.356 54.7703 111.223 54.7703H107.296Z" fill="black"/>
<path d="M119.009 54.7703C118.876 54.7703 118.81 54.7037 118.676 54.6372C118.543 54.5706 118.543 54.4375 118.543 54.3044V48.5812C118.543 48.4481 118.61 48.3815 118.676 48.2484C118.743 48.1153 118.876 48.1153 119.009 48.1153C119.142 48.1153 119.275 48.1819 119.342 48.2484C119.409 48.315 119.475 48.4481 119.475 48.5812V54.3044C119.475 54.4375 119.409 54.5041 119.342 54.6372C119.275 54.7703 119.142 54.7703 119.009 54.7703Z" fill="black"/>
<path d="M126.596 48.6477C126.596 48.5146 126.662 48.4481 126.729 48.315C126.795 48.1819 126.928 48.1819 127.062 48.1819C127.195 48.1819 127.328 48.2484 127.394 48.3815L130.855 53.04V48.6477C130.855 48.5146 130.921 48.4481 130.988 48.315C131.055 48.1819 131.188 48.1819 131.321 48.1819C131.454 48.1819 131.52 48.2484 131.654 48.315C131.787 48.3815 131.787 48.5146 131.787 48.6477V54.371C131.787 54.5041 131.72 54.5707 131.654 54.7038C131.587 54.8369 131.454 54.8369 131.321 54.8369C131.188 54.8369 131.055 54.7703 130.988 54.6372L127.527 49.9787V54.371C127.527 54.5041 127.461 54.5707 127.394 54.7038C127.328 54.8369 127.195 54.8369 127.062 54.8369C126.928 54.8369 126.862 54.7703 126.729 54.7038C126.596 54.6372 126.596 54.5041 126.596 54.371V48.6477Z" fill="black"/>
<path d="M138.774 48.6477C138.774 48.5146 138.841 48.4481 138.908 48.315C138.974 48.1819 139.107 48.1819 139.24 48.1819H143.167C143.3 48.1819 143.366 48.2484 143.499 48.315C143.633 48.3815 143.633 48.5146 143.633 48.6477C143.633 48.7808 143.566 48.8474 143.499 48.9805C143.433 49.1136 143.3 49.1136 143.167 49.1136H139.706V50.977H142.767C142.901 50.977 143.034 51.0435 143.1 51.1101C143.167 51.1766 143.233 51.3097 143.233 51.4428C143.233 51.5759 143.167 51.6425 143.1 51.7756C143.034 51.9087 142.901 51.9087 142.767 51.9087H139.706V53.8386H143.167C143.3 53.8386 143.366 53.9052 143.499 53.9717C143.633 54.0383 143.633 54.1714 143.633 54.3045C143.633 54.4376 143.566 54.5041 143.499 54.6372C143.433 54.7703 143.3 54.7703 143.167 54.7703H139.307C139.174 54.7703 139.107 54.7038 138.974 54.6372C138.841 54.5707 138.841 54.4376 138.841 54.3045L138.774 48.6477Z" fill="black"/>
<path d="M159.338 48.5146C159.338 48.3815 159.405 48.315 159.471 48.2484C159.538 48.1819 159.671 48.1153 159.738 48.1153C159.871 48.1153 160.004 48.1819 160.07 48.2484C160.137 48.315 160.203 48.4481 160.203 48.5812V51.1101H163.597V48.5812C163.597 48.4481 163.597 48.3815 163.731 48.2484C163.864 48.1153 163.93 48.1153 164.063 48.1153C164.196 48.1153 164.263 48.1819 164.396 48.2484C164.529 48.315 164.529 48.4481 164.529 48.5812V54.371C164.529 54.5041 164.463 54.5706 164.396 54.7037C164.329 54.8368 164.196 54.8368 164.063 54.8368C163.93 54.8368 163.864 54.7703 163.731 54.7037C163.597 54.6372 163.597 54.5041 163.597 54.371V52.0418H160.203V54.371C160.203 54.5041 160.137 54.5706 160.07 54.7037C160.004 54.8368 159.871 54.8368 159.738 54.8368C159.604 54.8368 159.538 54.7703 159.405 54.7037C159.272 54.6372 159.272 54.5041 159.272 54.371C159.272 53.4393 159.272 52.4411 159.272 51.4428C159.272 50.4446 159.338 49.5129 159.338 48.5146Z" fill="black"/>
<path d="M171.583 48.6477C171.583 48.5146 171.65 48.4481 171.716 48.315C171.783 48.1819 171.916 48.1819 172.049 48.1819H175.975C176.109 48.1819 176.175 48.2484 176.308 48.315C176.441 48.3815 176.441 48.5146 176.441 48.6477C176.441 48.7808 176.375 48.8474 176.308 48.9805C176.242 49.1136 176.109 49.1136 175.975 49.1136H172.515V50.977H175.576C175.709 50.977 175.842 51.0435 175.909 51.1101C175.975 51.1766 176.042 51.3097 176.042 51.4428C176.042 51.5759 175.975 51.6425 175.909 51.7756C175.842 51.9087 175.709 51.9087 175.576 51.9087H172.515V53.8386H175.975C176.109 53.8386 176.175 53.9052 176.308 53.9717C176.441 54.0383 176.441 54.1714 176.441 54.3045C176.441 54.4376 176.375 54.5041 176.308 54.6372C176.242 54.7703 176.109 54.7703 175.975 54.7703H172.116C171.983 54.7703 171.916 54.7038 171.783 54.6372C171.65 54.5707 171.65 54.4376 171.65 54.3045L171.583 48.6477Z" fill="black"/>
<path d="M188.221 54.371C188.221 54.5041 188.154 54.5707 188.088 54.7037C188.021 54.8368 187.888 54.8369 187.821 54.8369C187.755 54.8369 187.688 54.8369 187.622 54.7703C187.555 54.7038 187.489 54.6372 187.489 54.6372C187.222 54.4376 186.956 54.2379 186.757 53.9717C186.557 53.7055 186.357 53.4393 186.224 53.1731C186.091 52.9069 185.958 52.7073 185.825 52.5742C185.692 52.4411 185.559 52.308 185.359 52.2414C185.159 52.1749 184.96 52.1749 184.627 52.1749H184.228V54.371C184.228 54.5041 184.161 54.5707 184.095 54.7037C184.028 54.8368 183.895 54.8369 183.762 54.8369C183.629 54.8369 183.562 54.7703 183.429 54.7037C183.296 54.6372 183.296 54.5041 183.296 54.371V48.7143C183.296 48.5812 183.363 48.4481 183.429 48.3815C183.496 48.315 183.629 48.2484 183.762 48.2484H184.96H185.093C185.625 48.2484 186.091 48.315 186.49 48.4481C186.89 48.5812 187.222 48.8474 187.489 49.1136C187.755 49.3798 187.821 49.7791 187.821 50.2449C187.821 50.5111 187.755 50.7773 187.622 51.0435C187.489 51.3097 187.356 51.4428 187.156 51.6425C186.956 51.8421 186.757 51.9087 186.557 52.0418C186.69 52.1749 186.757 52.308 186.89 52.5076C187.089 52.8404 187.222 53.1731 187.422 53.3728C187.622 53.5724 187.821 53.8386 188.088 54.0383C188.154 54.1048 188.221 54.1048 188.221 54.1714C188.221 54.2379 188.221 54.3045 188.221 54.371ZM185.093 49.1136H184.228V51.3097H185.093C185.625 51.3097 186.091 51.2432 186.424 51.0435C186.757 50.8439 186.89 50.6442 186.89 50.2449C186.89 49.8456 186.69 49.5794 186.357 49.3798C186.025 49.1801 185.625 49.1136 185.093 49.1136Z" fill="black"/>
<path d="M195.142 48.6477C195.142 48.5146 195.209 48.4481 195.275 48.315C195.342 48.1819 195.475 48.1819 195.608 48.1819H199.534C199.667 48.1819 199.734 48.2484 199.867 48.315C200 48.3815 200 48.5146 200 48.6477C200 48.7808 199.934 48.8474 199.867 48.9805C199.8 49.1136 199.667 49.1136 199.534 49.1136H196.074V50.977H199.135C199.268 50.977 199.401 51.0435 199.468 51.1101C199.534 51.1766 199.601 51.3097 199.601 51.4428C199.601 51.5759 199.534 51.6425 199.468 51.7756C199.401 51.9087 199.268 51.9087 199.135 51.9087H196.074V53.8386H199.534C199.667 53.8386 199.734 53.9052 199.867 53.9717C200 54.0383 200 54.1714 200 54.3045C200 54.4376 199.934 54.5041 199.867 54.6372C199.8 54.7703 199.667 54.7703 199.534 54.7703H195.674C195.541 54.7703 195.475 54.7038 195.342 54.6372C195.209 54.5707 195.209 54.4376 195.209 54.3045L195.142 48.6477Z" fill="black"/>
</svg>
